<!DOCTYPE svg PUBLIC "-//W3C//DTD SVG 1.0//EN" 
              "http://www.w3.org/TR/2001/REC-SVG-20010904/DTD/svg10.dtd"> 
<svg xmlns="http://www.w3.org/2000/svg" width="200" height="100"> 
  <g style="fill-opacity:1;fill: #FFFF00;" transform="rotate(-45 50 50)"> 
    <rect x="-50%" y="-20%" height="5%" width="150%" />
    <rect x="-50%" y="-10%" height="5%" width="150%"/>
    <rect x="-50%" y="0" height="5%" width="150%"/>
    <rect x="-50%" y="10%" height="5%" width="150%"/>
    <rect x="-50%" y="20%" height="5%" width="150%"/>
    <rect x="-50%" y="30%" height="5%" width="150%"/>
    <rect x="-50%" y="40%" height="5%" width="150%"/>
    <rect x="-50%" y="50%" height="5%" width="150%"/>
    <rect x="-50%" y="60%" height="5%" width="150%"/>
    <rect x="-50%" y="70%" height="5%" width="150%"/>
    <rect x="-50%" y="80%" height="5%" width="150%"/>
    <rect x="-50%" y="90%" height="5%" width="150%"/>
    <rect x="-50%" y="100%" height="5%" width="150%"/>
    <rect x="-50%" y="110%" height="5%" width="150%"/>
    <rect x="-50%" y="120%" height="5%" width="150%"/>
    <rect x="-50%" y="130%" height="5%" width="150%"/>
    <rect x="-50%" y="140%" height="5%" width="150%"/>
    <rect x="-50%" y="150%" height="5%" width="150%"/>
    <rect x="-50%" y="160%" height="5%" width="150%"/>
    <rect x="-50%" y="170%" height="5%" width="150%"/>
    <rect x="-50%" y="180%" height="5%" width="150%"/>
  </g> 
</svg>